<svg width="59" height="36" viewBox="0 0 59 36" fill="none" xmlns="http://www.w3.org/2000/svg">
<path d="M13.7349 35.06V31.6723C14.7731 31.6723 15.6147 31.6039 16.2609 31.4635C16.9047 31.3256 17.4036 31.0741 17.7537 30.7115C18.1039 30.3489 18.3496 29.8264 18.4897 29.1428C18.6297 28.4604 18.6998 27.5899 18.6998 26.5291V0.396759H23.414V26.6145C23.414 28.5654 23.2039 30.1622 22.7825 31.4025C22.3611 32.6428 21.6177 33.5621 20.5513 34.1615C19.4848 34.7609 17.9712 35.06 16.0066 35.06H13.7349V35.06Z" fill="#C8C7F1"/>
<path d="M2.53223 21.7838L12.0344 28.4518V23.9788L5.6038 19.3349C5.19958 19.7561 4.26337 20.43 2.53223 21.7838Z" fill="#C8C7F1"/>
<path d="M0 15.5322V19.9783C1.236 19.1628 2.472 18.3473 3.708 17.5318L12.0332 11.5194V7.00369L0 15.5322Z" fill="#C8C7F1"/>
<path d="M59 19.9783V15.5322L46.9668 7.00369V11.5194L55.292 17.5318C56.5268 18.3473 57.764 19.1628 59 19.9783Z" fill="#C8C7F1"/>
<path d="M53.3962 19.3362L46.9656 23.9801V28.453L56.4678 21.7851C54.7367 20.43 53.8004 19.7561 53.3962 19.3362Z" fill="#C8C7F1"/>
<path d="M40.8273 0.794739L35.6155 17.1216L37.8872 22.686L45.2455 0.794739H40.8273Z" fill="#C8C7F1"/>
<path d="M35.6155 17.1216L35.6094 17.1436L35.5553 16.9739L30.4762 0.793518H26.015L33.3303 22.686L33.3364 22.7043V34.662H37.8811V22.7043L37.8873 22.686L35.6155 17.1216Z" fill="#C8C7F1"/>
</svg>
