<svg width="33" height="33" viewBox="0 0 33 33" fill="none" xmlns="http://www.w3.org/2000/svg">
<path d="M21.389 2.62941L14.7887 31.5036C14.536 32.5992 13.6233 33.2308 12.7467 32.9215C11.8702 32.6057 11.3648 31.4649 11.6123 30.3692L18.2126 1.49638C18.4653 0.401123 19.3779 -0.233063 20.2545 0.0799052C21.1311 0.392809 21.6365 1.53441 21.389 2.62941ZM26.7414 7.82471L32.5166 15.0431C33.1611 15.8487 33.1611 17.1506 32.5166 17.9562L26.7414 25.1746C26.0968 25.9802 25.0552 25.9802 24.4106 25.1746C23.7661 24.369 23.7661 23.0671 24.4106 22.2615L29.0154 16.4996L24.4106 10.7378C23.7661 9.93222 23.7661 8.63033 24.4106 7.82471C25.0552 7.01908 26.0968 7.01908 26.7414 7.82471ZM8.59065 10.7378L3.98336 16.4996L8.59065 22.2615C9.2352 23.0671 9.2352 24.369 8.59065 25.1746C7.94609 25.9802 6.90449 25.9802 6.25993 25.1746L0.483263 17.9562C-0.161088 17.1506 -0.161088 15.8487 0.483263 15.0431L6.25993 7.82471C6.90449 7.01908 7.94609 7.01908 8.59065 7.82471C9.2352 8.63033 9.2352 9.93222 8.59065 10.7378Z" fill="#C8C7F1"/>
</svg>
