<svg width="33" height="31" viewBox="0 0 33 31" fill="none" xmlns="http://www.w3.org/2000/svg">
<path d="M11.8594 0C13.851 0 15.4688 1.51791 15.4688 3.39062V27.6094C15.4688 29.4803 13.851 31 11.8594 31C9.99668 31 8.4627 29.674 8.26934 27.9666C7.93418 28.0514 7.57969 28.0938 7.21875 28.0938C4.94033 28.0938 3.09375 26.3561 3.09375 24.2188C3.09375 23.7707 3.17561 23.3348 3.32514 22.9352C1.38123 22.2449 0 20.477 0 18.4062C0 16.4748 1.20592 14.8037 2.95002 14.0287C2.39443 13.3687 2.0625 12.4787 2.0625 11.625C2.0625 9.76621 3.45404 8.21621 5.31158 7.83477C5.21039 7.50176 5.15625 7.14453 5.15625 6.78125C5.15625 4.96848 6.48398 3.44633 8.26934 3.02311C8.4627 1.32355 9.99668 0 11.8594 0ZM24.7307 3.02311C26.516 3.44633 27.8438 4.96848 27.8438 6.78125C27.8438 7.14453 27.7922 7.50176 27.6891 7.83477C29.5453 8.21621 30.9375 9.76621 30.9375 11.625C30.9375 12.4787 30.6088 13.3687 30.048 14.0287C31.7947 14.8037 33 16.4748 33 18.4062C33 20.477 31.6207 22.2449 29.6742 22.9352C29.8225 23.3348 29.9062 23.7707 29.9062 24.2188C29.9062 26.3561 28.0564 28.0938 25.7812 28.0938C25.4203 28.0938 25.0658 28.0514 24.7307 27.9666C24.5373 29.674 23.0033 31 21.1406 31C19.149 31 17.5312 29.4803 17.5312 27.6094V3.39062C17.5312 1.51791 19.149 0 21.1406 0C23.0033 0 24.5373 1.32355 24.7307 3.02311Z" fill="#C8C7F1"/>
</svg>
